<svg xmlns="http://www.w3.org/2000/svg" width="560" height="180" font-family="sans-serif">
  <!-- KB-429 RiskMark 색맹 시뮬(재리뷰 반영) — 상: 정상 색 / 하: 적록색맹(deuteranopia) 근사.
       상태별 실루엣(원·삼각·팔각·마름모)이 1차 형태 채널, 글리프(✓ ! ✕ ?)는 보조 —
       색 소실·소형 렌더에서도 4상태 판별 유지. -->
  <text x="16" y="24" font-size="13">normal</text>
  <text x="16" y="118" font-size="13">deuteranopia(sim)</text>
  <g transform="translate(90,10)">
    <g><circle cx="20" cy="20" r="17" fill="#00BE65"/><path d="M12.5 20.7l5 5 10-11" stroke="#fff" stroke-width="5" fill="none" stroke-linecap="round" stroke-linejoin="round"/><text x="8" y="58" font-size="12">safe ✓</text></g>
    <g transform="translate(110,0)"><path d="M13.7 4.2h12.6l9.5 9.5v12.6l-9.5 9.5H13.7l-9.5-9.5V13.7z" fill="#F76661"/><path d="M13 13l14 14M27 13L13 27" stroke="#fff" stroke-width="4" stroke-linecap="round"/><text x="2" y="58" font-size="12">danger ✕</text></g>
    <g transform="translate(220,0)"><path d="M20 4.3 36.7 33.3H3.3z" fill="#FFA526"/><path d="M20 15v9" stroke="#fff" stroke-width="4" stroke-linecap="round"/><circle cx="20" cy="29.3" r="2.2" fill="#fff"/><text x="0" y="58" font-size="12">caution !</text></g>
    <g transform="translate(330,0)"><path d="M20 3 37 20 20 37 3 20z" fill="#B1B5BD"/><path d="M15.5 16c0-3.6 4.2-5 6.7-3 2.5 2 1.2 4.8-1.1 6.1-1.3.8-1.6 1.8-1.6 3.2" stroke="#fff" stroke-width="3.4" fill="none" stroke-linecap="round"/><circle cx="19.5" cy="27.5" r="2" fill="#fff"/><text x="0" y="58" font-size="12">unable ?</text></g>
  </g>
  <g transform="translate(90,104)">
    <g><circle cx="20" cy="20" r="17" fill="#9FA96A"/><path d="M12.5 20.7l5 5 10-11" stroke="#fff" stroke-width="5" fill="none" stroke-linecap="round" stroke-linejoin="round"/><text x="8" y="58" font-size="12">safe ✓</text></g>
    <g transform="translate(110,0)"><path d="M13.7 4.2h12.6l9.5 9.5v12.6l-9.5 9.5H13.7l-9.5-9.5V13.7z" fill="#8E8560"/><path d="M13 13l14 14M27 13L13 27" stroke="#fff" stroke-width="4" stroke-linecap="round"/><text x="2" y="58" font-size="12">danger ✕</text></g>
    <g transform="translate(220,0)"><path d="M20 4.3 36.7 33.3H3.3z" fill="#C7B14E"/><path d="M20 15v9" stroke="#fff" stroke-width="4" stroke-linecap="round"/><circle cx="20" cy="29.3" r="2.2" fill="#fff"/><text x="0" y="58" font-size="12">caution !</text></g>
    <g transform="translate(330,0)"><path d="M20 3 37 20 20 37 3 20z" fill="#B2B4BC"/><path d="M15.5 16c0-3.6 4.2-5 6.7-3 2.5 2 1.2 4.8-1.1 6.1-1.3.8-1.6 1.8-1.6 3.2" stroke="#fff" stroke-width="3.4" fill="none" stroke-linecap="round"/><circle cx="19.5" cy="27.5" r="2" fill="#fff"/><text x="0" y="58" font-size="12">unable ?</text></g>
  </g>
</svg>
